<?xml version="1.0" encoding="UTF-8" standalone="no"?>
<svg
   xmlns:dc="http://purl.org/dc/elements/1.1/"
   xmlns:cc="http://creativecommons.org/ns#"
   xmlns:rdf="http://www.w3.org/1999/02/22-rdf-syntax-ns#"
   xmlns:svg="http://www.w3.org/2000/svg"
   xmlns="http://www.w3.org/2000/svg"
   viewBox="0 0 2666.6667 1066.6667"
   height="1066.6667"
   width="2666.6667"
   xml:space="preserve"
   id="svg2"
   version="1.1"><metadata
     id="metadata8"><rdf:RDF><cc:Work
         rdf:about=""><dc:format>image/svg+xml</dc:format><dc:type
           rdf:resource="http://purl.org/dc/dcmitype/StillImage" /></cc:Work></rdf:RDF></metadata><defs
     id="defs6"><clipPath
       id="clipPath18"
       clipPathUnits="userSpaceOnUse"><path
         id="path16"
         d="M 0,800 H 2000 V 0 H 0 Z" /></clipPath></defs><g
     transform="matrix(1.3333333,0,0,-1.3333333,0,1066.6667)"
     id="g10"><g
       id="g12"><g
         clip-path="url(#clipPath18)"
         id="g14"><g
           transform="translate(293.397,600.4287)"
           id="g20"><path
             id="path22"
             style="fill:#e360e0;fill-opacity:1;fill-rule:nonzero;stroke:none"
             d="m 0,0 c -2.559,0 -5.116,-0.655 -7.409,-1.983 l -161.298,-93.125 c -4.584,-2.648 -7.406,-7.539 -7.406,-12.832 v -186.254 c 0,-5.295 2.822,-10.184 7.406,-12.828 l 161.298,-93.125 c 2.293,-1.323 4.852,-1.99 7.409,-1.99 2.559,0 5.118,0.667 7.408,1.99 l 161.302,93.125 c 4.583,2.644 7.408,7.533 7.408,12.828 v 186.254 c 0,5.293 -2.825,10.184 -7.405,12.832 L 7.409,-1.983 C 5.118,-0.661 2.559,0 0,0 M 0,-14.809 161.301,-107.94 V -294.194 L 0,-387.325 -161.301,-294.194 V -107.94 L 0,-14.809" /></g><g
           transform="translate(417.5391,419.7324)"
           id="g24"><path
             id="path26"
             style="fill:#e360e0;fill-opacity:1;fill-rule:nonzero;stroke:none"
             d="m 0,0 h -58.896 c -11.233,0 -20.372,-9.135 -20.372,-20.368 0,-11.232 9.139,-20.373 20.372,-20.373 h 36.464 c -9.558,-48.085 -51.906,-83.386 -101.729,-83.386 -57.214,0 -103.755,46.547 -103.755,103.759 0,27.885 10.971,54.076 30.892,73.745 l 0.66,0.639 c 0.732,0.616 1.919,1.313 3.562,1.313 2.879,0 5.269,-2.213 5.522,-5.06 V -75.966 c 0,-11.232 9.138,-20.374 20.368,-20.374 11.232,0 20.372,9.142 20.372,20.374 l -0.001,55.556 c 0,1.488 0.578,2.884 1.639,3.942 l 58.672,58.692 c 2.166,2.164 5.694,2.164 7.856,0 2.167,-2.165 2.167,-5.69 0.003,-7.855 l -36.575,-36.575 -20.708,-20.735 c -2.261,-2.333 -3.949,-5.194 -4.88,-8.289 -0.001,-0.007 -0.003,-0.013 -0.003,-0.02 -0.577,-1.913 -0.867,-3.891 -0.867,-5.867 v -0.013 c 0.003,-5.442 2.12,-10.547 5.958,-14.387 l 38.813,-38.835 c 3.849,-3.845 8.965,-5.962 14.403,-5.962 5.442,0 10.558,2.117 14.405,5.962 3.847,3.846 5.968,8.964 5.968,14.406 0,5.441 -2.121,10.558 -5.966,14.405 l -33.408,33.406 c -2.896,2.893 -7.584,2.893 -10.478,0 -2.891,-2.892 -2.891,-7.584 0,-10.476 l 33.408,-33.407 c 1.05,-1.048 1.629,-2.447 1.629,-3.928 0,-1.482 -0.579,-2.88 -1.629,-3.929 -1.049,-1.049 -2.443,-1.628 -3.929,-1.628 -1.484,0 -2.878,0.579 -3.927,1.628 l -38.805,38.829 c -0.947,0.941 -1.51,2.174 -1.611,3.489 l 0.363,2.449 c 0.266,0.686 0.663,1.309 1.121,1.779 l 57.194,57.222 c 7.94,7.943 7.94,20.864 -0.001,28.807 -7.945,7.946 -20.868,7.94 -28.809,0 l -54.032,-54.032 -4.65,-4.669 c -3.852,-3.846 -5.969,-8.96 -5.969,-14.415 v -55.55 c 0,-3.063 -2.492,-5.555 -5.556,-5.555 -3.061,0 -5.553,2.492 -5.553,5.555 V 50.526 c 0,0.149 -0.005,0.289 -0.012,0.432 -0.626,10.759 -9.552,19.186 -20.325,19.186 -4.945,0 -9.722,-1.809 -13.451,-5.099 -0.015,-0.009 -0.029,-0.019 -0.038,-0.028 -0.412,-0.369 -0.808,-0.747 -1.189,-1.144 -22.733,-22.467 -35.253,-52.38 -35.253,-84.241 0,-65.388 53.193,-118.57 118.572,-118.57 60.157,0 110.773,45.027 117.744,104.745 0.245,2.097 -0.418,4.202 -1.826,5.785 -1.405,1.583 -3.417,2.485 -5.532,2.485 h -45.121 c -3.063,0 -5.558,2.492 -5.558,5.555 0,3.064 2.495,5.553 5.558,5.553 H 0 c 3.063,0 5.558,-2.489 5.558,-5.502 L 5.529,-20.73 c -0.012,-0.157 -0.017,-0.312 -0.017,-0.471 -0.45,-71.051 -58.62,-128.856 -129.673,-128.856 -71.507,0 -129.681,58.18 -129.681,129.689 0,53.803 33.915,102.635 84.393,121.512 0.118,0.047 0.192,0.076 0.307,0.127 l 0.311,0.108 c 0.008,0.006 0.116,0.048 0.128,0.054 l 0.281,0.099 c 0.078,0.028 0.154,0.051 0.232,0.079 14.108,5.108 28.923,7.699 44.029,7.699 29.996,0 59.251,-10.48 82.371,-29.513 1.146,-0.944 1.855,-2.276 2,-3.751 0.143,-1.478 -0.299,-2.924 -1.238,-4.068 -1.947,-2.365 -5.459,-2.708 -7.824,-0.757 -21.137,17.396 -47.883,26.98 -75.309,26.98 -10.705,0 -21.395,-1.466 -31.773,-4.358 -3.941,-1.097 -6.247,-5.184 -5.149,-9.126 1.1,-3.941 5.187,-6.236 9.123,-5.146 9.085,2.533 18.438,3.814 27.799,3.814 23.998,0 47.401,-8.385 65.894,-23.603 8.671,-7.136 21.537,-5.89 28.673,2.778 3.46,4.199 5.075,9.497 4.549,14.914 -0.526,5.416 -3.128,10.307 -7.328,13.759 -25.767,21.214 -58.366,32.892 -91.788,32.892 -16.792,0 -33.263,-2.874 -48.962,-8.544 -0.149,-0.048 -0.302,-0.105 -0.476,-0.169 l -0.325,-0.12 c -0.289,-0.102 -0.572,-0.207 -0.853,-0.321 -56.159,-21.071 -93.88,-75.44 -93.88,-135.339 0,-79.678 64.821,-144.494 144.496,-144.494 79.09,0 143.854,64.262 144.486,143.321 0.026,0.388 0.048,0.775 0.048,1.173 C 20.373,-9.135 11.233,0 0,0" /></g><g
           transform="translate(534.5078,447.2837)"
           id="g28"><path
             id="path30"
             style="fill:#e360e0;fill-opacity:1;fill-rule:nonzero;stroke:none"
             d="m 0,0 c 0,4.723 2.066,7.38 7.38,7.38 5.315,0 7.381,-2.657 7.381,-7.38 V -33.947 L 59.778,4.282 c 1.774,1.474 3.691,2.952 6.053,2.952 4.281,0 7.085,-3.544 7.085,-7.676 0,-2.508 -1.622,-4.577 -3.395,-6.198 L 18.598,-50.035 69.225,-93.434 c 1.92,-1.621 3.691,-3.688 3.691,-6.345 0,-4.132 -2.804,-7.673 -7.085,-7.673 -3.1,0 -5.607,2.658 -7.969,4.425 l -43.101,37.049 v -34.093 c 0,-4.723 -2.066,-7.381 -7.381,-7.381 -5.314,0 -7.38,2.658 -7.38,7.381 z" /></g><g
           transform="translate(655.5332,416.8779)"
           id="g32"><path
             id="path34"
             style="fill:#e360e0;fill-opacity:1;fill-rule:nonzero;stroke:none"
             d="M 0,0 H 32.768 C 36.9,0 43.396,0.295 43.396,6.201 v 10.184 c 0,5.903 -6.051,6.64 -10.479,6.64 H 0 Z m 0,-69.665 c 0,-4.724 -2.065,-7.381 -7.38,-7.381 -5.315,0 -7.381,2.657 -7.381,7.381 V 37.786 h 49.595 c 11.662,0 23.321,-8.264 23.321,-21.401 V 6.201 c 0,-13.877 -11.513,-20.962 -23.321,-20.962 H 21.255 l 33.209,-47.524 c 1.625,-2.219 3.691,-5.022 3.691,-7.825 0,-4.132 -3.395,-6.936 -7.527,-6.936 -2.953,0 -4.87,1.768 -6.494,4.132 L 3.395,-14.761 H 0 Z" /></g><g
           transform="translate(790.875,347.2129)"
           id="g36"><path
             id="path38"
             style="fill:#e360e0;fill-opacity:1;fill-rule:nonzero;stroke:none"
             d="m 0,0 c 0,-4.724 -2.065,-7.381 -7.38,-7.381 -5.311,0 -7.381,2.657 -7.381,7.381 v 47.232 l -29.077,37.786 v 15.053 c 0,4.723 2.066,7.38 7.38,7.38 5.315,0 7.381,-2.657 7.381,-7.38 V 90.036 L -7.38,61.843 14.319,90.036 v 10.035 c 0,4.723 2.067,7.38 7.378,7.38 5.315,0 7.381,-2.657 7.381,-7.38 V 85.018 L 0,47.232 Z" /></g><g
           transform="translate(868.0625,397.9863)"
           id="g40"><path
             id="path42"
             style="fill:#e360e0;fill-opacity:1;fill-rule:nonzero;stroke:none"
             d="m 0,0 h 32.771 c 8.706,0 10.625,2.214 10.625,10.627 v 20.664 c 0,8.414 -1.919,10.626 -10.625,10.626 H 0 Z m 0,-50.773 c 0,-4.724 -2.065,-7.381 -7.377,-7.381 -5.314,0 -7.381,2.657 -7.381,7.381 V 56.678 h 49.004 c 6.789,0 11.662,-1.033 16.973,-6.052 6.347,-5.902 6.939,-11.363 6.939,-19.335 V 11.215 c 0,-7.527 -0.592,-12.842 -6.052,-18.895 -5.756,-6.49 -11.808,-7.081 -19.78,-7.081 H 0 Z" /></g><g
           transform="translate(974.3271,439.9033)"
           id="g44"><path
             id="path46"
             style="fill:#e360e0;fill-opacity:1;fill-rule:nonzero;stroke:none"
             d="m 0,0 v -5.312 c 0,-4.723 -2.065,-7.38 -7.377,-7.38 -5.314,0 -7.381,2.657 -7.381,7.38 V 14.761 H 58.158 V -5.312 c 0,-4.723 -2.066,-7.38 -7.381,-7.38 -5.314,0 -7.381,2.657 -7.381,7.38 V 0 H 29.081 v -92.69 c 0,-4.724 -2.066,-7.381 -7.381,-7.381 -5.314,0 -7.381,2.657 -7.381,7.381 l 0,92.69 z" /></g><g
           transform="translate(1107.3105,435.4756)"
           id="g48"><path
             id="path50"
             style="fill:#e360e0;fill-opacity:1;fill-rule:nonzero;stroke:none"
             d="M 0,0 C -1.182,2.361 -1.92,4.428 -5.019,4.428 -8.117,4.428 -8.858,2.361 -10.037,0 L -23.32,-26.716 c -2.216,-4.281 -3.399,-7.085 -3.399,-11.956 0,-3.84 0.887,-6.497 2.512,-9.739 l 14.17,-28.047 c 1.033,-2.066 2.065,-4.425 5.018,-4.425 2.954,0 3.986,2.359 5.019,4.425 l 14.17,28.047 c 1.621,3.242 2.508,5.899 2.508,9.739 0,4.871 -1.179,7.675 -3.395,11.956 z m 27.6,-22.288 c 2.806,-5.756 3.839,-10.038 3.839,-16.384 0,-7.081 -1.919,-11.513 -4.873,-17.564 L 12.988,-83.394 c -3.541,-7.087 -9.447,-12.25 -18.007,-12.25 -8.563,0 -14.465,5.163 -18.009,12.25 l -13.579,27.158 c -2.953,6.051 -4.87,10.483 -4.87,17.564 0,6.346 1.034,10.628 3.837,16.384 l 14.761,29.373 c 3.541,6.938 9.593,12.103 17.86,12.103 8.265,0 14.317,-5.165 17.861,-12.103 z" /></g><g
           transform="translate(1225.8252,406.1025)"
           id="g52"><path
             id="path54"
             style="fill:#e360e0;fill-opacity:1;fill-rule:nonzero;stroke:none"
             d="m 0,0 c 6.052,0 8.855,-2.361 8.855,-9 0,-6.643 -2.803,-9.008 -8.855,-9.008 h -34.538 c -6.052,0 -8.858,2.365 -8.858,9.008 0,6.639 2.806,9 8.858,9 z" /></g><g
           transform="translate(1322.2021,377.3193)"
           id="g56"><path
             id="path58"
             style="fill:#e360e0;fill-opacity:1;fill-rule:nonzero;stroke:none"
             d="m 0,0 c -3.837,0 -7.381,2.066 -7.381,7.381 0,5.314 3.544,7.38 7.381,7.38 h 29.077 v -29.076 c 0,-14.317 -9.593,-23.172 -23.617,-23.172 h -25.387 c -6.789,0 -11.808,1.175 -16.972,5.899 -5.907,5.315 -6.94,10.776 -6.94,18.155 v 36.902 c 0,9.447 2.067,14.319 7.676,21.551 l 17.419,22.287 c 5.902,7.53 11.067,10.038 20.663,10.038 h 19.777 c 3.84,0 7.381,-2.066 7.381,-7.381 0,-5.311 -3.541,-7.38 -7.381,-7.38 H 3.985 c -8.117,0 -7.526,0.149 -12.399,-6.052 L -24.501,36.018 c -4.576,-5.757 -4.576,-11.958 -4.576,-19.191 v -28.931 c 0,-8.118 1.769,-10.623 10.183,-10.623 H 4.577 c 5.311,0 9.742,1.177 9.742,7.673 l 0,15.054 z" /></g><g
           transform="translate(1399.3887,416.8779)"
           id="g60"><path
             id="path62"
             style="fill:#e360e0;fill-opacity:1;fill-rule:nonzero;stroke:none"
             d="M 0,0 H 32.768 C 36.9,0 43.396,0.295 43.396,6.201 v 10.184 c 0,5.903 -6.05,6.64 -10.478,6.64 H 0 Z m 0,-69.665 c 0,-4.724 -2.065,-7.381 -7.38,-7.381 -5.314,0 -7.381,2.657 -7.381,7.381 V 37.786 h 49.595 c 11.662,0 23.321,-8.264 23.321,-21.401 V 6.201 c 0,-13.877 -11.512,-20.962 -23.321,-20.962 H 21.256 l 33.209,-47.524 c 1.624,-2.219 3.69,-5.022 3.69,-7.825 0,-4.132 -3.395,-6.936 -7.527,-6.936 -2.952,0 -4.869,1.768 -6.493,4.132 L 3.396,-14.761 H 0 Z" /></g><g
           transform="translate(1534.7314,347.2129)"
           id="g64"><path
             id="path66"
             style="fill:#e360e0;fill-opacity:1;fill-rule:nonzero;stroke:none"
             d="m 0,0 c 0,-4.724 -2.066,-7.381 -7.381,-7.381 -5.311,0 -7.381,2.657 -7.381,7.381 v 47.232 l -29.077,37.786 v 15.053 c 0,4.723 2.067,7.38 7.381,7.38 5.314,0 7.381,-2.657 7.381,-7.38 V 90.036 l 21.696,-28.193 21.7,28.193 v 10.035 c 0,4.723 2.066,7.38 7.377,7.38 5.315,0 7.381,-2.657 7.381,-7.38 V 85.018 L 0,47.232 Z" /></g><g
           transform="translate(1628.3037,358.7246)"
           id="g68"><path
             id="path70"
             style="fill:#e360e0;fill-opacity:1;fill-rule:nonzero;stroke:none"
             d="M 0,0 C -3.248,0 -5.61,0 -7.676,2.804 -9.3,5.017 -9.3,6.637 -9.3,9.447 v 8.264 c 0,2.804 0,4.425 1.624,6.643 2.066,2.804 4.428,2.804 7.676,2.804 h 10.626 c 3.248,0 5.61,0 7.676,-2.804 1.625,-2.218 1.625,-3.839 1.625,-6.643 V 9.447 c 0,-2.81 0,-4.43 -1.625,-6.643 C 16.236,0 13.874,0 10.626,0 Z" /></g><g
           transform="translate(1718.1836,397.9863)"
           id="g72"><path
             id="path74"
             style="fill:#e360e0;fill-opacity:1;fill-rule:nonzero;stroke:none"
             d="m 0,0 h 32.768 c 8.709,0 10.628,2.214 10.628,10.627 v 20.664 c 0,8.414 -1.919,10.626 -10.628,10.626 H 0 Z m 0,-50.773 c 0,-4.724 -2.066,-7.381 -7.381,-7.381 -5.314,0 -7.381,2.657 -7.381,7.381 V 56.678 h 49.004 c 6.792,0 11.662,-1.033 16.977,-6.052 6.347,-5.902 6.935,-11.363 6.935,-19.335 V 11.215 c 0,-7.527 -0.588,-12.842 -6.052,-18.895 -5.756,-6.49 -11.808,-7.081 -19.777,-7.081 H 0 Z" /></g><g
           transform="translate(1875.2246,354.5928)"
           id="g76"><path
             id="path78"
             style="fill:#e360e0;fill-opacity:1;fill-rule:nonzero;stroke:none"
             d="m 0,0 c 3.837,0 7.381,-2.072 7.381,-7.38 0,-5.314 -3.544,-7.381 -7.381,-7.381 H -65.535 V 92.691 c 0,4.723 2.066,7.38 7.381,7.38 5.311,0 7.378,-2.657 7.378,-7.38 l 0,-92.691 z" /></g></g></g></g></svg>