<?xml version="1.0" encoding="UTF-8" standalone="no"?>
<svg
   xmlns:dc="http://purl.org/dc/elements/1.1/"
   xmlns:cc="http://creativecommons.org/ns#"
   xmlns:rdf="http://www.w3.org/1999/02/22-rdf-syntax-ns#"
   xmlns:svg="http://www.w3.org/2000/svg"
   xmlns="http://www.w3.org/2000/svg"
   viewBox="0 0 2666.6667 2666.6667"
   height="200.6667"
   width="200.6667"
   xml:space="preserve"
   id="svg2"
   version="1.1"><metadata
     id="metadata8"><rdf:RDF><cc:Work
         rdf:about=""><dc:format>image/svg+xml</dc:format><dc:type
           rdf:resource="http://purl.org/dc/dcmitype/StillImage" /></cc:Work></rdf:RDF></metadata><defs
     id="defs6"><clipPath
       id="clipPath18"
       clipPathUnits="userSpaceOnUse"><path
         id="path16"
         d="M 0,2000 H 2000 V 0 H 0 Z" /></clipPath></defs><g
     transform="matrix(1.3333333,0,0,-1.3333333,0,2666.6667)"
     id="g10"><g
       id="g12"><g
         clip-path="url(#clipPath18)"
         id="g14"><g
           transform="translate(999.9595,1582.2773)"
           id="g20"><path
             id="path22"
             style="fill:#e360e0;fill-opacity:1;fill-rule:nonzero;stroke:none"
             d="M 0,0 C -5.895,0 -11.798,-1.527 -17.087,-4.581 L -389.35,-219.51 c -10.571,-6.107 -17.093,-17.395 -17.093,-29.61 v -429.835 c 0,-12.215 6.522,-23.502 17.093,-29.61 l 372.263,-214.918 c 5.289,-3.054 11.192,-4.592 17.087,-4.592 5.914,0 11.811,1.538 17.101,4.592 l 372.263,214.918 c 10.578,6.108 17.09,17.395 17.09,29.61 v 429.835 c 0,12.215 -6.512,23.503 -17.09,29.61 L 17.101,-4.581 C 11.811,-1.527 5.914,0 0,0 M 0,-34.191 372.262,-249.12 V -678.955 L 0,-893.884 -372.249,-678.955 V -249.12 L 0,-34.191" /></g><g
           transform="translate(1286.4658,1165.25)"
           id="g24"><path
             id="path26"
             style="fill:#e360e0;fill-opacity:1;fill-rule:nonzero;stroke:none"
             d="m 0,0 h -135.924 c -25.924,0 -47.017,-21.093 -47.017,-47.017 0,-25.924 21.093,-47.005 47.017,-47.005 h 84.153 c -22.064,-110.975 -119.794,-192.433 -234.776,-192.433 -132.034,0 -239.444,107.404 -239.444,239.438 0,64.369 25.308,124.811 71.288,170.198 l 1.522,1.471 c 1.688,1.429 4.433,3.033 8.231,3.033 6.629,0 12.15,-5.093 12.739,-11.67 v -291.347 c 0,-25.913 21.079,-46.994 47.006,-46.994 25.924,0 47.019,21.081 47.019,46.994 l -0.016,128.228 c 0,3.424 1.342,6.642 3.787,9.084 l 135.409,135.467 c 4.995,4.995 13.143,4.995 18.127,0 5.006,-5.006 5.006,-13.132 0.01,-18.137 l -84.414,-84.404 -47.791,-47.856 c -5.213,-5.377 -9.101,-11.997 -11.253,-19.141 -0.013,-0.011 -0.013,-0.021 -0.013,-0.032 -1.326,-4.428 -2.007,-8.976 -2.007,-13.546 v -0.032 c 0.014,-12.542 4.897,-24.332 13.758,-33.199 l 89.568,-89.62 c 8.894,-8.877 20.689,-13.752 33.242,-13.752 12.564,0 24.365,4.875 33.248,13.752 8.883,8.877 13.769,20.678 13.769,33.232 0,12.566 -4.886,24.378 -13.759,33.256 l -77.112,77.107 c -6.675,6.675 -17.494,6.675 -24.179,0 -6.669,-6.685 -6.669,-17.505 0,-24.179 l 77.107,-77.111 c 2.422,-2.42 3.752,-5.648 3.752,-9.073 0,-3.414 -1.33,-6.632 -3.752,-9.064 -2.422,-2.42 -5.639,-3.752 -9.074,-3.752 -3.424,0 -6.642,1.332 -9.063,3.752 l -89.551,89.609 c -2.19,2.192 -3.487,5.028 -3.719,8.071 l 0.84,5.65 c 0.613,1.57 1.529,3.009 2.59,4.1 l 131.993,132.064 c 18.322,18.322 18.322,48.151 -0.011,66.479 -18.333,18.333 -48.152,18.322 -66.486,0 L -347.873,-3.076 -358.605,-13.862 c -8.891,-8.867 -13.785,-20.678 -13.785,-33.264 l 0.011,-128.206 c 0,-7.066 -5.759,-12.814 -12.826,-12.814 -7.067,0 -12.818,5.748 -12.818,12.814 v 291.946 c 0,0.327 -0.005,0.656 -0.03,0.993 -1.442,24.823 -22.041,44.269 -46.897,44.269 -11.421,0 -22.445,-4.178 -31.052,-11.757 -0.03,-0.022 -0.063,-0.055 -0.087,-0.077 -0.95,-0.84 -1.866,-1.723 -2.746,-2.628 -52.462,-51.865 -81.35,-120.901 -81.35,-194.431 0,-150.891 122.75,-273.629 273.638,-273.629 138.833,0 255.655,103.925 271.736,241.728 0.568,4.854 -0.97,9.707 -4.209,13.35 -3.25,3.642 -7.896,5.725 -12.771,5.725 h -104.133 c -7.067,0 -12.826,5.759 -12.826,12.826 0,7.067 5.759,12.826 12.826,12.826 H 0 c 7.068,0 12.826,-5.759 12.826,-12.706 l -0.06,-0.959 c -0.037,-0.361 -0.049,-0.72 -0.049,-1.081 -1.03,-163.956 -135.276,-297.361 -299.264,-297.361 -165.023,0 -299.281,134.255 -299.281,299.281 0,124.167 78.263,236.878 194.769,280.449 0.27,0.097 0.444,0.163 0.706,0.283 l 0.717,0.262 c 0.025,0 0.273,0.098 0.297,0.109 l 0.641,0.228 c 0.185,0.066 0.36,0.121 0.534,0.186 32.566,11.79 66.758,17.777 101.617,17.777 69.23,0 136.739,-24.19 190.104,-68.12 2.638,-2.171 4.275,-5.257 4.613,-8.66 0.327,-3.413 -0.688,-6.739 -2.858,-9.39 -4.494,-5.453 -12.596,-6.238 -18.06,-1.745 -48.783,40.157 -110.496,62.264 -173.799,62.264 -24.7,0 -49.37,-3.381 -73.32,-10.056 -9.102,-2.53 -14.424,-11.953 -11.894,-21.049 2.544,-9.095 11.981,-14.407 21.063,-11.887 20.962,5.845 42.545,8.801 64.151,8.801 55.39,0 109.398,-19.348 152.073,-54.477 20.019,-16.468 49.701,-13.589 66.179,6.424 7.984,9.695 11.703,21.922 10.492,34.42 -1.211,12.499 -7.219,23.776 -16.916,31.76 -59.461,48.946 -134.691,75.907 -211.828,75.907 -38.75,0 -76.766,-6.643 -113,-19.73 -0.341,-0.109 -0.69,-0.24 -1.093,-0.382 l -0.75,-0.283 c -0.665,-0.229 -1.319,-0.48 -1.974,-0.742 -129.602,-48.62 -216.653,-174.102 -216.653,-312.349 0,-183.872 149.588,-333.462 333.47,-333.462 182.524,0 331.994,148.326 333.455,330.757 0.055,0.895 0.11,1.788 0.11,2.705 C 47.018,-21.093 25.924,0 0,0" /></g><g
           transform="translate(234.9521,539.6758)"
           id="g28"><path
             id="path30"
             style="fill:#e360e0;fill-opacity:1;fill-rule:nonzero;stroke:none"
             d="m 0,0 c 0,5.355 2.345,8.376 8.376,8.376 6.031,0 8.376,-3.021 8.376,-8.376 v -38.531 l 51.09,43.385 c 2.012,1.679 4.188,3.353 6.871,3.353 4.859,0 8.038,-4.02 8.038,-8.709 0,-2.846 -1.843,-5.191 -3.85,-7.034 l -57.792,-49.253 57.454,-49.252 c 2.181,-1.844 4.188,-4.188 4.188,-7.198 0,-4.691 -3.179,-8.714 -8.038,-8.714 -3.517,0 -6.369,3.02 -9.046,5.027 l -48.915,42.043 v -38.695 c 0,-5.355 -2.345,-8.375 -8.376,-8.375 -6.031,0 -8.376,3.02 -8.376,8.375 z" /></g><g
           transform="translate(372.3164,505.168)"
           id="g32"><path
             id="path34"
             style="fill:#e360e0;fill-opacity:1;fill-rule:nonzero;stroke:none"
             d="m 0,0 h 37.19 c 4.69,0 12.057,0.339 12.057,7.035 v 11.561 c 0,6.696 -6.866,7.536 -11.893,7.536 L 0,26.132 Z m 0,-79.07 c 0,-5.355 -2.345,-8.375 -8.376,-8.375 -6.031,0 -8.376,3.02 -8.376,8.375 V 42.884 h 56.287 c 13.229,0 26.464,-9.38 26.464,-24.288 V 7.035 c 0,-15.748 -13.066,-23.787 -26.464,-23.787 h -15.41 l 37.686,-53.941 c 1.843,-2.509 4.188,-5.694 4.188,-8.878 0,-4.691 -3.85,-7.874 -8.54,-7.874 -3.354,0 -5.529,2.017 -7.372,4.689 L 3.855,-16.752 H 0 Z" /></g><g
           transform="translate(525.9307,426.0977)"
           id="g36"><path
             id="path38"
             style="fill:#e360e0;fill-opacity:1;fill-rule:nonzero;stroke:none"
             d="m 0,0 c 0,-5.354 -2.345,-8.375 -8.376,-8.375 -6.031,0 -8.376,3.021 -8.376,8.375 v 53.605 l -33.002,42.883 v 17.09 c 0,5.356 2.344,8.376 8.376,8.376 6.031,0 8.376,-3.02 8.376,-8.376 v -11.391 l 24.626,-31.994 24.621,31.994 v 11.391 c 0,5.356 2.345,8.376 8.376,8.376 6.031,0 8.376,-3.02 8.376,-8.376 V 96.488 L 0,53.605 Z" /></g><g
           transform="translate(613.5405,483.7266)"
           id="g40"><path
             id="path42"
             style="fill:#e360e0;fill-opacity:1;fill-rule:nonzero;stroke:none"
             d="m 0,0 h 37.19 c 9.881,0 12.057,2.509 12.057,12.063 v 23.449 c 0,9.548 -2.176,12.061 -12.057,12.061 H 0 Z m 0,-57.629 c 0,-5.354 -2.345,-8.375 -8.376,-8.375 -6.031,0 -8.376,3.021 -8.376,8.375 V 64.325 h 55.616 c 7.705,0 13.235,-1.178 19.266,-6.87 7.198,-6.697 7.869,-12.897 7.869,-21.943 V 12.729 c 0,-8.541 -0.671,-14.572 -6.866,-21.443 -6.532,-7.372 -13.403,-8.038 -22.445,-8.038 H 0 Z" /></g><g
           transform="translate(734.1523,531.2998)"
           id="g44"><path
             id="path46"
             style="fill:#e360e0;fill-opacity:1;fill-rule:nonzero;stroke:none"
             d="m 0,0 v -6.031 c 0,-5.361 -2.345,-8.376 -8.376,-8.376 -6.031,0 -8.376,3.015 -8.376,8.376 V 16.752 H 66 V -6.031 c 0,-5.361 -2.346,-8.376 -8.376,-8.376 -6.032,0 -8.377,3.015 -8.377,8.376 V 0 H 33.002 v -105.202 c 0,-5.355 -2.344,-8.375 -8.376,-8.375 -6.031,0 -8.376,3.02 -8.376,8.375 V 0 Z" /></g><g
           transform="translate(885.084,526.2715)"
           id="g48"><path
             id="path50"
             style="fill:#e360e0;fill-opacity:1;fill-rule:nonzero;stroke:none"
             d="M 0,0 C -1.341,2.684 -2.176,5.028 -5.693,5.028 -9.21,5.028 -10.05,2.684 -11.392,0 l -15.072,-30.318 c -2.514,-4.854 -3.855,-8.038 -3.855,-13.569 0,-4.351 1.003,-7.372 2.846,-11.058 l 16.081,-31.825 c 1.173,-2.344 2.345,-5.027 5.699,-5.027 3.348,0 4.521,2.683 5.693,5.027 l 16.081,31.825 c 1.843,3.686 2.847,6.707 2.847,11.058 0,5.531 -1.336,8.715 -3.85,13.569 z m 31.328,-25.291 c 3.179,-6.533 4.352,-11.397 4.352,-18.596 0,-8.037 -2.176,-13.064 -5.524,-19.935 L 14.74,-94.644 c -4.019,-8.038 -10.721,-13.905 -20.433,-13.905 -9.718,0 -16.419,5.867 -20.438,13.905 l -15.411,30.822 c -3.348,6.871 -5.529,11.898 -5.529,19.935 0,7.199 1.172,12.063 4.357,18.596 l 16.752,33.33 c 4.019,7.873 10.89,13.741 20.269,13.741 9.38,0 16.245,-5.868 20.269,-13.741 z" /></g><g
           transform="translate(1019.6016,492.9434)"
           id="g52"><path
             id="path54"
             style="fill:#e360e0;fill-opacity:1;fill-rule:nonzero;stroke:none"
             d="M 0,0 C 6.865,0 10.05,-2.684 10.05,-10.22 10.05,-17.756 6.865,-20.439 0,-20.439 h -39.197 c -6.871,0 -10.05,2.683 -10.05,10.219 0,7.536 3.179,10.22 10.05,10.22 z" /></g><g
           transform="translate(1128.9912,460.2783)"
           id="g56"><path
             id="path58"
             style="fill:#e360e0;fill-opacity:1;fill-rule:nonzero;stroke:none"
             d="m 0,0 c -4.357,0 -8.376,2.345 -8.376,8.376 0,6.02 4.019,8.365 8.376,8.365 H 32.996 V -16.25 c 0,-16.251 -10.884,-26.306 -26.801,-26.306 h -28.809 c -7.705,0 -13.404,1.342 -19.266,6.707 -6.702,6.032 -7.874,12.227 -7.874,20.602 v 41.881 c 0,10.72 2.344,16.25 8.713,24.451 l 19.763,25.297 c 6.702,8.545 12.563,11.391 23.454,11.391 h 22.445 c 4.357,0 8.375,-2.344 8.375,-8.376 0,-6.031 -4.018,-8.376 -8.375,-8.376 h -20.1 c -9.21,0 -8.545,0.164 -14.07,-6.871 L -27.811,40.866 c -5.191,-6.533 -5.191,-13.568 -5.191,-21.769 v -32.838 c 0,-9.217 2.012,-12.063 11.561,-12.063 H 5.191 c 6.032,0 11.053,1.342 11.053,8.714 V 0 Z" /></g><g
           transform="translate(1216.6006,505.168)"
           id="g60"><path
             id="path62"
             style="fill:#e360e0;fill-opacity:1;fill-rule:nonzero;stroke:none"
             d="m 0,0 h 37.19 c 4.691,0 12.058,0.339 12.058,7.035 v 11.561 c 0,6.696 -6.866,7.536 -11.894,7.536 L 0,26.132 Z m 0,-79.07 c 0,-5.355 -2.345,-8.375 -8.375,-8.375 -6.031,0 -8.377,3.02 -8.377,8.375 V 42.884 H 39.535 C 52.765,42.884 66,33.504 66,18.596 V 7.035 C 66,-8.713 52.934,-16.752 39.535,-16.752 h -15.41 l 37.687,-53.941 c 1.842,-2.509 4.188,-5.694 4.188,-8.878 0,-4.691 -3.851,-7.874 -8.54,-7.874 -3.355,0 -5.53,2.017 -7.372,4.689 L 3.855,-16.752 H 0 Z" /></g><g
           transform="translate(1370.2158,426.0977)"
           id="g64"><path
             id="path66"
             style="fill:#e360e0;fill-opacity:1;fill-rule:nonzero;stroke:none"
             d="m 0,0 c 0,-5.354 -2.346,-8.375 -8.377,-8.375 -6.031,0 -8.375,3.021 -8.375,8.375 v 53.605 l -33.003,42.883 v 17.09 c 0,5.356 2.345,8.376 8.376,8.376 6.031,0 8.376,-3.02 8.376,-8.376 v -11.391 l 24.626,-31.994 24.621,31.994 v 11.391 c 0,5.356 2.345,8.376 8.376,8.376 6.031,0 8.376,-3.02 8.376,-8.376 V 96.488 L 0,53.605 Z" /></g><g
           transform="translate(1476.4209,439.1641)"
           id="g68"><path
             id="path70"
             style="fill:#e360e0;fill-opacity:1;fill-rule:nonzero;stroke:none"
             d="m 0,0 c -3.688,0 -6.364,0 -8.715,3.185 -1.838,2.508 -1.838,4.351 -1.838,7.536 V 20.1 c 0,3.185 0,5.028 1.838,7.547 2.351,3.173 5.027,3.173 8.715,3.173 h 12.062 c 3.68,0 6.364,0 8.708,-3.173 1.843,-2.519 1.843,-4.362 1.843,-7.547 v -9.379 c 0,-3.185 0,-5.028 -1.843,-7.536 C 18.426,0 15.742,0 12.062,0 Z" /></g><g
           transform="translate(1578.4365,483.7266)"
           id="g72"><path
             id="path74"
             style="fill:#e360e0;fill-opacity:1;fill-rule:nonzero;stroke:none"
             d="m 0,0 h 37.191 c 9.881,0 12.057,2.509 12.057,12.063 v 23.449 c 0,9.548 -2.176,12.061 -12.057,12.061 H 0 Z m 0,-57.629 c 0,-5.354 -2.344,-8.375 -8.375,-8.375 -6.031,0 -8.377,3.021 -8.377,8.375 V 64.325 h 55.617 c 7.705,0 13.235,-1.178 19.266,-6.87 C 65.329,50.758 66,44.558 66,35.512 V 12.729 C 66,4.188 65.329,-1.843 59.135,-8.714 52.602,-16.086 45.73,-16.752 36.689,-16.752 H 0 Z" /></g><g
           transform="translate(1756.6729,434.4746)"
           id="g76"><path
             id="path78"
             style="fill:#e360e0;fill-opacity:1;fill-rule:nonzero;stroke:none"
             d="m 0,0 c 4.356,0 8.375,-2.346 8.375,-8.377 0,-6.03 -4.019,-8.375 -8.375,-8.375 h -74.375 v 121.953 c 0,5.356 2.344,8.376 8.375,8.376 6.031,0 8.377,-3.02 8.377,-8.376 V 0 Z" /></g></g></g></g></svg>